<svg width="13" height="4" viewBox="0 0 13 4" fill="none" xmlns="http://www.w3.org/2000/svg">
<path d="M1.72931 3.94288C1.2936 3.94288 0.952348 3.83776 0.705549 3.62753C0.461798 3.41425 0.332305 3.10651 0.31707 2.70432C0.314023 2.62205 0.3125 2.48799 0.3125 2.30213C0.3125 2.11322 0.314023 1.97611 0.31707 1.8908C0.332305 1.4947 0.464845 1.19001 0.71469 0.976731C0.964535 0.760402 1.30274 0.652237 1.72931 0.652237C1.99743 0.652237 2.23814 0.69794 2.45142 0.789347C2.6647 0.877707 2.83228 1.00568 2.95416 1.17326C3.07908 1.33779 3.14307 1.53127 3.14611 1.75369V1.76283C3.14611 1.78721 3.13545 1.80853 3.11412 1.82681C3.09584 1.84205 3.07451 1.84967 3.05013 1.84967H2.43314C2.39353 1.84967 2.36306 1.84205 2.34173 1.82681C2.3204 1.80853 2.30212 1.77654 2.28689 1.73084C2.24423 1.57545 2.1772 1.46728 2.08579 1.40634C1.99439 1.34236 1.87403 1.31037 1.72474 1.31037C1.3652 1.31037 1.17934 1.51146 1.16715 1.91365C1.16411 1.99592 1.16258 2.12236 1.16258 2.29299C1.16258 2.46362 1.16411 2.59311 1.16715 2.68147C1.17934 3.08366 1.3652 3.28475 1.72474 3.28475C1.87403 3.28475 1.99591 3.25276 2.09036 3.18878C2.18482 3.12174 2.25032 3.01358 2.28689 2.86428C2.29908 2.81858 2.31583 2.78811 2.33716 2.77288C2.35849 2.75459 2.39048 2.74545 2.43314 2.74545H3.05013C3.07756 2.74545 3.10041 2.75459 3.11869 2.77288C3.14002 2.79116 3.14916 2.81401 3.14611 2.84143C3.14307 3.06385 3.07908 3.25886 2.95416 3.42643C2.83228 3.59097 2.6647 3.71894 2.45142 3.81034C2.23814 3.8987 1.99743 3.94288 1.72931 3.94288Z" fill="#333333"/>
<path d="M4.97036 3.94288C4.54074 3.94288 4.20406 3.83776 3.96031 3.62753C3.71961 3.41729 3.59925 3.10042 3.59925 2.6769V0.812199C3.59925 0.778683 3.60992 0.751261 3.63125 0.729933C3.65562 0.708604 3.68304 0.69794 3.71351 0.69794H4.30309C4.3366 0.69794 4.36402 0.708604 4.38535 0.729933C4.40973 0.751261 4.42192 0.778683 4.42192 0.812199V2.67233C4.42192 2.87038 4.46762 3.01967 4.55903 3.12022C4.65348 3.21772 4.78907 3.26647 4.96579 3.26647C5.13946 3.26647 5.27352 3.2162 5.36798 3.11565C5.46243 3.0151 5.50966 2.86733 5.50966 2.67233V0.812199C5.50966 0.778683 5.52032 0.751261 5.54165 0.729933C5.56602 0.708604 5.59345 0.69794 5.62391 0.69794H6.21806C6.25158 0.69794 6.279 0.708604 6.30033 0.729933C6.32165 0.751261 6.33232 0.778683 6.33232 0.812199V2.6769C6.33232 3.10042 6.21044 3.41729 5.96669 3.62753C5.72599 3.83776 5.39387 3.94288 4.97036 3.94288Z" fill="#333333"/>
<path d="M7.05265 3.89718C7.02218 3.89718 6.99476 3.88652 6.97038 3.86519C6.94905 3.84081 6.93839 3.81339 6.93839 3.78292V0.812199C6.93839 0.778683 6.94905 0.751261 6.97038 0.729933C6.99476 0.708604 7.02218 0.69794 7.05265 0.69794H8.33234C8.72234 0.69794 9.02856 0.787824 9.25098 0.967591C9.47645 1.14736 9.58919 1.40939 9.58919 1.75369C9.58919 2.09494 9.47798 2.3524 9.25555 2.52608C9.03313 2.6967 8.72539 2.78202 8.33234 2.78202H7.78847V3.78292C7.78847 3.81644 7.77628 3.84386 7.75191 3.86519C7.73058 3.88652 7.70316 3.89718 7.66964 3.89718H7.05265ZM8.30949 2.15131C8.44355 2.15131 8.54867 2.11779 8.62484 2.05076C8.70102 1.98068 8.7391 1.87861 8.7391 1.74455C8.7391 1.61963 8.70254 1.5206 8.62941 1.44748C8.55934 1.3713 8.45269 1.33322 8.30949 1.33322H7.77476V2.15131H8.30949Z" fill="#333333"/>
<path d="M9.62543 3.89718C9.60105 3.89718 9.5782 3.88804 9.55687 3.86976C9.53859 3.84843 9.52945 3.82558 9.52945 3.8012C9.52945 3.78292 9.53097 3.76921 9.53402 3.76007L10.6081 0.82591C10.6172 0.789347 10.637 0.758878 10.6675 0.734503C10.6979 0.710128 10.7375 0.69794 10.7863 0.69794H11.4627C11.5115 0.69794 11.5511 0.710128 11.5815 0.734503C11.612 0.758878 11.6318 0.789347 11.6409 0.82591L12.7104 3.76007L12.7195 3.8012C12.7195 3.82558 12.7089 3.84843 12.6876 3.86976C12.6693 3.88804 12.6464 3.89718 12.619 3.89718H12.0569C11.9837 3.89718 11.935 3.86519 11.9106 3.8012L11.7324 3.33503H10.5121L10.3384 3.8012C10.314 3.86519 10.2638 3.89718 10.1876 3.89718H9.62543ZM11.5495 2.6769L11.1245 1.47033L10.6995 2.6769H11.5495Z" fill="#333333"/>
</svg>
